<svg xmlns="http://www.w3.org/2000/svg" width="118.098" height="17.28" viewBox="0 0 118.098 17.28">
  <g id="close" transform="translate(-713.218 -1742.96)">
    <path id="パス_18404" data-name="パス 18404" d="M-58.4-4.728a.276.276,0,0,0,.408,0l2.928-2.9L-52.14-4.7a.277.277,0,0,0,.408-.024l.288-.264a.3.3,0,0,0,0-.432l-2.9-2.9,2.9-2.928a.328.328,0,0,0,0-.432l-.288-.264a.33.33,0,0,0-.432-.024l-2.9,2.928-2.9-2.9a.334.334,0,0,0-.456,0l-.264.264a.4.4,0,0,0,0,.456l2.9,2.9-2.9,2.9a.3.3,0,0,0,0,.432ZM-33.06-8.376A8.609,8.609,0,0,0-24.372.24a8.293,8.293,0,0,0,5.856-2.328.276.276,0,0,0,0-.408l-.408-.408a.3.3,0,0,0-.384.048A7.609,7.609,0,0,1-24.372-.84,7.493,7.493,0,0,1-31.86-8.376a7.518,7.518,0,0,1,7.488-7.584,7.5,7.5,0,0,1,5.064,1.968c.144.144.264.168.408.024l.384-.408a.305.305,0,0,0-.024-.432,8.223,8.223,0,0,0-5.832-2.232A8.665,8.665,0,0,0-33.06-8.376ZM-9.828-.312A.318.318,0,0,0-9.516,0h8.472A.279.279,0,0,0-.732-.264V-.7c0-.168-.024-.312-.312-.312H-8.7v-15.48a.314.314,0,0,0-.288-.312h-.528a.318.318,0,0,0-.312.312ZM5.244-8.376A8.569,8.569,0,0,0,13.884.24a8.574,8.574,0,0,0,8.664-8.616,8.63,8.63,0,0,0-8.664-8.664A8.624,8.624,0,0,0,5.244-8.376Zm1.056,0a7.59,7.59,0,0,1,7.584-7.608,7.61,7.61,0,0,1,7.608,7.608,7.569,7.569,0,0,1-7.608,7.56A7.549,7.549,0,0,1,6.3-8.376Zm24,6.648A7.817,7.817,0,0,0,35.388.24c2.76,0,5.232-1.872,5.232-4.272,0-2.784-2.088-3.936-5.376-5.064-2.424-.792-3.984-1.68-3.984-3.72,0-1.368,1.1-3.192,4.056-3.192a7.035,7.035,0,0,1,3.528,1.128.345.345,0,0,0,.528-.12,2.191,2.191,0,0,1,.192-.312.344.344,0,0,0-.1-.5A7.881,7.881,0,0,0,35.34-17.04c-3.744,0-5.184,2.448-5.184,4.248,0,2.76,1.848,3.744,4.632,4.728,2.9.984,4.656,1.944,4.656,4.08,0,1.752-1.848,3.216-4.032,3.216a6.98,6.98,0,0,1-4.44-1.848c-.192-.168-.36-.1-.528.1l-.216.288C30.036-1.968,30.156-1.848,30.3-1.728ZM49.068-.312A.318.318,0,0,0,49.38,0H59a.318.318,0,0,0,.312-.312V-.7A.318.318,0,0,0,59-1.008H50.22v-7.1h7.608a.318.318,0,0,0,.312-.312v-.408a.318.318,0,0,0-.312-.312H50.22v-6.624H59a.318.318,0,0,0,.312-.312v-.408A.318.318,0,0,0,59-16.8H49.38a.318.318,0,0,0-.312.312Z" transform="translate(772 1760)" fill="#fff"/>
  </g>
</svg>
